<svg width="81" height="26" viewBox="0 0 81 26" fill="none" xmlns="http://www.w3.org/2000/svg">
    <path d="M23.5233 18.2794C23.3974 17.9767 23.2794 17.6585 23.1535 17.3868L22.5712 16.0906L22.5476 16.0673C20.8166 12.3418 18.9675 8.55422 17.0083 4.8287L16.9296 4.67347C16.7329 4.30868 16.5362 3.90508 16.3316 3.53253C16.0798 3.09012 15.8359 2.61667 15.4346 2.16651C15.0435 1.69549 14.5512 1.31599 13.9933 1.05541C13.4354 0.794835 12.8259 0.659668 12.2086 0.659668C11.5914 0.659668 10.9818 0.794835 10.4239 1.05541C9.86604 1.31599 9.37377 1.69549 8.98261 2.16651C8.6128 2.61667 8.33741 3.09012 8.08562 3.53253C7.88892 3.93613 7.69221 4.33196 7.48763 4.69675L7.40895 4.85198C5.48121 8.5775 3.60068 12.3651 1.86965 16.0906L1.82244 16.1372C1.64933 16.5408 1.44476 16.9599 1.24805 17.4101C1.12216 17.6817 0.996264 17.9767 0.870371 18.3027C0.530485 19.1563 0.421948 20.0825 0.555458 20.9901C0.688968 21.8976 1.05992 22.7552 1.63174 23.4783C2.20357 24.2014 2.95654 24.7651 3.81645 25.1137C4.67635 25.4623 5.61351 25.5839 6.53556 25.4665C7.41955 25.3517 8.27074 25.0613 9.03769 24.6127C10.0606 24.0462 11.0441 23.2234 12.1457 22.0359C13.2472 23.2234 14.2544 24.0462 15.2537 24.6205C16.2146 25.1769 17.3029 25.484 18.4167 25.5131C19.7066 25.5184 20.9549 25.0631 21.9311 24.2314C22.9073 23.3997 23.5455 22.2477 23.7278 20.9881C23.9386 20.083 23.8673 19.1361 23.5233 18.2716V18.2794ZM12.2244 19.5678C10.871 17.8602 9.98976 16.2924 9.69076 14.9497C9.56688 14.4521 9.54018 13.9359 9.61208 13.4284C9.66716 13.0326 9.81665 12.6833 10.0212 12.3884C10.4933 11.7131 11.3195 11.294 12.2244 11.294C12.6541 11.2811 13.0803 11.3736 13.4649 11.5632C13.8494 11.7529 14.1802 12.0338 14.4275 12.3806C14.6321 12.6911 14.7816 13.0326 14.8288 13.4284C14.9075 13.8786 14.876 14.3986 14.7501 14.9497C14.4511 16.2691 13.5698 17.8525 12.2244 19.5678ZM22.2486 20.7165C22.1592 21.356 21.9015 21.9612 21.5011 22.4719C21.1008 22.9826 20.5718 23.3808 19.9668 23.627C19.3688 23.8754 18.7079 23.9453 18.0627 23.8754C17.4332 23.7978 16.8037 23.596 16.1585 23.2234C15.0873 22.5703 14.124 21.7588 13.3023 20.8174C14.9547 18.7994 15.9539 16.9599 16.3316 15.3222C16.5126 14.5461 16.5362 13.8476 16.4575 13.2034C16.3593 12.5927 16.1284 12.0103 15.7808 11.4958C15.384 10.938 14.8542 10.4848 14.2382 10.1763C13.6222 9.86771 12.9387 9.71316 12.248 9.7262C10.7923 9.7262 9.49405 10.3937 8.70722 11.4881C8.35302 12.0012 8.1241 12.5883 8.03841 13.2034C7.93613 13.8553 7.95973 14.5771 8.16431 15.3222C8.54199 16.9599 9.56487 18.8227 11.1936 20.8329C10.3859 21.7923 9.42038 22.611 8.33741 23.2545C7.68434 23.627 7.06274 23.8211 6.43328 23.8987C5.45436 24.0224 4.46552 23.7599 3.68169 23.1684C2.89786 22.5769 2.38239 21.7041 2.24733 20.7398C2.16864 20.1188 2.22372 19.4979 2.47551 18.7994C2.55419 18.551 2.67222 18.3027 2.79811 18.0077C2.97121 17.6041 3.17579 17.185 3.3725 16.7659L3.40397 16.7115C5.10353 13.0093 6.96045 9.22947 8.88819 5.52723L8.96688 5.372C9.16358 4.99945 9.36029 4.60362 9.56487 4.23106C9.76944 3.83523 9.98976 3.45492 10.273 3.14446C10.5182 2.85574 10.8246 2.62356 11.1705 2.46425C11.5165 2.30494 11.8937 2.22238 12.2755 2.22238C12.6573 2.22238 13.0345 2.30494 13.3805 2.46425C13.7264 2.62356 14.0328 2.85574 14.278 3.14446C14.5534 3.45492 14.7816 3.83523 14.9861 4.23106C15.1829 4.60362 15.3796 5.00721 15.5841 5.372L15.6628 5.52723C17.5827 9.22947 19.4396 13.0093 21.1706 16.7115L21.1943 16.7348C21.3988 17.1384 21.5719 17.5886 21.7686 17.9767C21.8945 18.2794 22.0204 18.52 22.0991 18.7761C22.2486 19.4746 22.3273 20.0956 22.2486 20.7165ZM33.2013 19.397C32.6084 19.4056 32.0211 19.2823 31.4831 19.0365C30.9451 18.7906 30.4701 18.4284 30.0933 17.9767C29.2467 17.0142 28.7974 15.7732 28.8344 14.4995C28.8214 13.1981 29.2853 11.9358 30.1405 10.9448C30.5362 10.4873 31.0286 10.121 31.5833 9.87155C32.1379 9.62213 32.7413 9.49569 33.3508 9.50112C33.9244 9.48563 34.4925 9.61428 35.0018 9.87497C35.511 10.1357 35.9447 10.5198 36.2621 10.9913L36.3408 9.77277H38.6383V19.1487H36.3329L36.2542 17.7826C35.927 18.2861 35.4748 18.6987 34.9405 18.9812C34.4062 19.2638 33.8075 19.4069 33.2013 19.397ZM33.7993 17.1617C34.2557 17.1617 34.6569 17.0375 35.0346 16.8124C35.3808 16.5641 35.6641 16.2381 35.8844 15.8423C36.0811 15.4464 36.1834 14.973 36.1834 14.4452C36.2141 13.9868 36.1236 13.5284 35.9209 13.1148C35.7181 12.7012 35.4101 12.3466 35.0268 12.0857C34.6585 11.8593 34.2332 11.7394 33.7993 11.7394C33.3654 11.7394 32.9401 11.8593 32.5718 12.0857C32.2256 12.3341 31.9424 12.66 31.7221 13.0559C31.514 13.4924 31.4116 13.9707 31.4231 14.453C31.3924 14.9114 31.4829 15.3698 31.6856 15.7833C31.8883 16.1969 32.1964 16.5515 32.5797 16.8124C32.9495 17.0375 33.3508 17.1617 33.7993 17.1617ZM42.5725 7.24252C42.5725 7.51418 42.5253 7.76255 42.3994 7.96434C42.2735 8.15838 42.1004 8.33689 41.8722 8.46108C41.644 8.58526 41.4001 8.63183 41.1483 8.63183C40.8965 8.63183 40.6447 8.58526 40.4166 8.46108C40.2008 8.34257 40.0193 8.17157 39.8894 7.96434C39.7675 7.74324 39.7078 7.49405 39.7163 7.24252C39.7163 6.96311 39.7714 6.71474 39.8894 6.52071C40.0153 6.28786 40.1963 6.14815 40.4166 6.02397C40.6447 5.89979 40.8887 5.84546 41.1483 5.84546C41.3988 5.83976 41.6464 5.89828 41.8671 6.01527C42.0878 6.13227 42.2739 6.30375 42.4072 6.51294C42.5218 6.73923 42.5785 6.98968 42.5725 7.24252ZM39.8973 19.1176V9.75725H42.3994V19.1331H39.8894L39.8973 19.1176ZM49.0875 12.2099V12.2409C48.9694 12.1866 48.8121 12.1633 48.694 12.14C48.5367 12.109 48.4108 12.109 48.2613 12.109C47.561 12.109 47.0338 12.3108 46.6876 12.7299C46.3099 13.1568 46.1368 13.7544 46.1368 14.5228V19.1254H43.6268V9.74949H45.9323L46.0109 11.1698C46.2627 10.6731 46.5617 10.3006 46.9866 10.0211C47.4092 9.74965 47.9068 9.61407 48.4108 9.63307C48.5918 9.63307 48.7649 9.64859 48.9144 9.67963C48.993 9.70292 49.0402 9.70292 49.0875 9.7262V12.2099ZM50.0946 19.1176V5.90755H52.5967V10.9525C52.9508 10.5024 53.3521 10.1531 53.8557 9.88143C54.6529 9.49587 55.5585 9.3865 56.4265 9.57097C57.2944 9.75544 58.0741 10.223 58.6396 10.8982C59.4881 11.8626 59.9375 13.1067 59.8985 14.3831C59.9115 15.6845 59.4477 16.9468 58.5924 17.9379C58.1968 18.3953 57.7043 18.7616 57.1496 19.0111C56.595 19.2605 55.9917 19.3869 55.3821 19.3815C54.8086 19.397 54.2404 19.2683 53.7312 19.0077C53.2219 18.747 52.7882 18.3628 52.4708 17.8913L52.3922 19.1098L50.0946 19.1331V19.1176ZM54.9336 17.1617C55.3821 17.1617 55.7834 17.0375 56.1611 16.8124C56.5073 16.5641 56.7906 16.2381 57.0109 15.8423C57.2154 15.4464 57.3099 14.973 57.3099 14.4452C57.3099 13.9252 57.2154 13.4517 57.0109 13.0559C56.8042 12.6742 56.5139 12.3428 56.1611 12.0857C55.7928 11.8593 55.3676 11.7394 54.9336 11.7394C54.4997 11.7394 54.0745 11.8593 53.7062 12.0857C53.3521 12.3341 53.0767 12.66 52.8485 13.0559C52.6404 13.4924 52.5381 13.9707 52.5495 14.453C52.5188 14.9114 52.6093 15.3698 52.812 15.7833C53.0148 16.1969 53.3229 16.5515 53.7062 16.8124C54.076 17.0375 54.4773 17.1617 54.9336 17.1617ZM60.8427 19.1254V9.74949H63.1482L63.2268 10.968C63.5165 10.5009 63.9275 10.1187 64.4172 9.86077C64.9069 9.60287 65.4576 9.47871 66.0122 9.50112C66.6465 9.49031 67.2699 9.6642 67.8045 10.001C68.3391 10.3379 68.7612 10.8227 69.0179 11.3949C69.2933 11.9848 69.4428 12.7144 69.4428 13.5293V19.1487H66.9328V13.8553C66.9328 13.2034 66.7833 12.6911 66.4843 12.3108C66.1853 11.9382 65.7762 11.7364 65.2569 11.7364C64.8792 11.7364 64.5487 11.814 64.2576 11.9848C63.9822 12.1633 63.754 12.3884 63.5809 12.7066C63.4059 13.0283 63.3191 13.3895 63.3291 13.7544V19.1254H60.8427ZM70.6939 19.1254V5.89979H73.2039V10.9448C73.5438 10.4921 73.9861 10.1238 74.4956 9.86917C75.005 9.61453 75.5676 9.48054 76.1388 9.47783C76.7317 9.46928 77.3189 9.59251 77.857 9.83839C78.395 10.0843 78.87 10.4465 79.2467 10.8982C80.0891 11.8626 80.5354 13.1029 80.4978 14.3753C80.5115 15.6769 80.0476 16.9394 79.1917 17.9301C78.796 18.3876 78.3036 18.7539 77.7489 19.0033C77.1943 19.2527 76.5909 19.3792 75.9814 19.3737C75.4078 19.3892 74.8397 19.2606 74.3304 18.9999C73.8212 18.7392 73.3875 18.355 73.0701 17.8835L72.9993 19.1021L70.6939 19.1254ZM75.5565 17.1617C76.0129 17.1617 76.4141 17.0375 76.784 16.8124C77.138 16.5641 77.4134 16.2381 77.6416 15.8423C77.8383 15.4464 77.9406 14.973 77.9406 14.4452C77.9713 13.9868 77.8808 13.5284 77.6781 13.1148C77.4753 12.7012 77.1673 12.3466 76.784 12.0857C76.4157 11.8593 75.9904 11.7394 75.5565 11.7394C75.1226 11.7394 74.6973 11.8593 74.329 12.0857C73.9828 12.3341 73.6996 12.66 73.4793 13.0559C73.2596 13.4885 73.1567 13.9697 73.1803 14.453C73.1496 14.9114 73.2401 15.3698 73.4428 15.7833C73.6455 16.1969 73.9536 16.5515 74.3369 16.8124C74.7067 17.0375 75.0844 17.1617 75.5565 17.1617Z" fill="#100F10"/>
</svg>