<svg width="47" height="49" viewBox="0 0 47 49" fill="none" xmlns="http://www.w3.org/2000/svg">
    <path fillRule="evenodd" clipRule="evenodd" d="M0.666882 16.3718C0.666898 7.58143 7.55482 0.455433 16.0515 0.455433C24.5144 0.455434 31.3813 7.52485 31.4358 16.267L31.4358 16.3718L0.666882 16.3718Z" fill="#3D3D3D"/>
    <path fillRule="evenodd" clipRule="evenodd" d="M46.8208 16.3718C46.8208 7.58146 39.9329 0.45545 31.4362 0.45545C31.4361 0.45545 31.4359 0.45545 31.4358 0.45545L31.4358 32.2882L31.4601 32.2882C39.9458 32.2749 46.8208 25.154 46.8208 16.3718Z" fill="#3D3D3D"/>
    <path fillRule="evenodd" clipRule="evenodd" d="M16.0516 32.2882L46.8205 32.2882V32.4026C46.761 41.1403 39.8961 48.2046 31.4363 48.2046C22.9396 48.2046 16.0516 41.0786 16.0516 32.2882Z" fill="#3D3D3D"/>
    <path fillRule="evenodd" clipRule="evenodd" d="M0.66688 32.2882C0.66688 41.0716 7.54392 48.1933 16.0314 48.2046L16.0513 48.2046L16.0513 16.3718C7.55468 16.3719 0.66688 23.4979 0.66688 32.2882Z" fill="#3D3D3D"/>
</svg>
