<svg width="50" height="50" viewBox="0 0 47 48" fill="none" xmlns="http://www.w3.org/2000/svg">
    <path fillRule="evenodd" clipRule="evenodd" d="M0.000133514 16.0418C0.000149516 7.25142 6.88807 0.125431 15.3848 0.125432C23.8476 0.125432 30.7145 7.19484 30.769 15.937L30.769 16.0418L0.000133514 16.0418Z" fill="#2143E6"/>
    <path fillRule="evenodd" clipRule="evenodd" d="M46.1541 16.0418C46.1541 7.25144 39.2661 0.125433 30.7694 0.125433C30.7693 0.125433 30.7692 0.125433 30.769 0.125433L30.769 31.9582L30.7933 31.9582C39.279 31.9448 46.1541 24.824 46.1541 16.0418Z" fill="#2143E6"/>
    <path fillRule="evenodd" clipRule="evenodd" d="M15.385 31.9582L46.1539 31.9582V32.0726C46.0944 40.8103 39.2294 47.8746 30.7696 47.8746C22.2729 47.8746 15.385 40.7486 15.385 31.9582Z" fill="#2143E6"/>
    <path fillRule="evenodd" clipRule="evenodd" d="M0.000131888 31.9582C0.000131517 40.7416 6.87718 47.8633 15.3646 47.8746L15.3845 47.8746L15.3845 16.0418C6.88794 16.0419 0.00013226 23.1679 0.000131888 31.9582Z" fill="#2143E6"/>
</svg>
