<svg width="476" height="353" viewBox="0 0 476 353" fill="none" xmlns="http://www.w3.org/2000/svg">
<path d="M57.5789 65.6289C57.5789 55.4329 57.5789 50.3349 59.5631 46.4406C61.3085 43.015 64.0936 40.2299 67.5192 38.4845C71.4135 36.5002 76.5115 36.5002 86.7075 36.5002H157.288C167.484 36.5002 172.582 36.5002 176.477 38.4845C179.902 40.2299 182.687 43.015 184.433 46.4406C186.417 50.3349 186.417 55.4329 186.417 65.6289V275.691C186.417 285.887 186.417 290.985 184.433 294.88C182.687 298.305 179.902 301.09 176.477 302.836C172.582 304.82 167.484 304.82 157.288 304.82H86.7075C76.5115 304.82 71.4135 304.82 67.5192 302.836C64.0936 301.09 61.3085 298.305 59.5631 294.88C57.5789 290.985 57.5789 285.887 57.5789 275.691V65.6289Z" fill="url(#paint0_linear_458_3864)"/>
<g filter="url(#filter0_dd_458_3864)">
<path fillRule="evenodd" clipRule="evenodd" d="M157.328 35.6599C162.393 35.6599 166.244 35.6599 169.314 35.9107C172.402 36.163 174.773 36.6732 176.858 37.7358C180.442 39.5617 183.356 42.4753 185.182 46.059C186.244 48.1444 186.754 50.5154 187.007 53.6031C187.257 56.6731 187.257 60.5248 187.257 65.5896V275.73C187.257 280.795 187.257 284.647 187.007 287.717C186.754 290.805 186.244 293.175 185.182 295.261C183.356 298.845 180.442 301.758 176.858 303.584C174.773 304.647 172.402 305.157 169.314 305.409C166.244 305.66 162.393 305.66 157.328 305.66H86.6685C81.6037 305.66 77.752 305.66 74.682 305.409C71.5942 305.157 69.2232 304.647 67.1379 303.584C63.5542 301.758 60.6406 298.845 58.8146 295.261C57.7521 293.175 57.2419 290.805 56.9896 287.717C56.7388 284.647 56.7388 280.795 56.7388 275.73V65.5894C56.7388 60.5247 56.7388 56.6731 56.9896 53.6031C57.2419 50.5154 57.7521 48.1444 58.8146 46.059C60.6406 42.4753 63.5542 39.5617 67.1379 37.7358C69.2232 36.6732 71.5942 36.163 74.682 35.9107C77.7519 35.6599 81.6035 35.6599 86.6682 35.6599H157.328ZM59.5633 46.4405C57.579 50.3348 57.579 55.4328 57.579 65.6288V275.691C57.579 285.887 57.579 290.985 59.5633 294.879C61.3087 298.305 64.0938 301.09 67.5193 302.835C71.4137 304.82 76.5117 304.82 86.7077 304.82H157.289C167.485 304.82 172.583 304.82 176.477 302.835C179.902 301.09 182.688 298.305 184.433 294.879C186.417 290.985 186.417 285.887 186.417 275.691V65.6288C186.417 55.4328 186.417 50.3348 184.433 46.4405C182.688 43.0149 179.902 40.2298 176.477 38.4844C172.583 36.5002 167.485 36.5002 157.289 36.5002H86.7077C76.5117 36.5002 71.4137 36.5002 67.5193 38.4844C64.0938 40.2298 61.3087 43.0149 59.5633 46.4405Z" fill="url(#paint1_linear_458_3864)"/>
</g>
<rect x="62.0605" y="40.9814" width="119.876" height="259.357" rx="13.8809" fill="#2143E6"/>
<g opacity="0.6">
<path d="M62.0605 63.3881C62.0605 55.545 62.0605 51.6235 63.5869 48.6278C64.9295 45.9928 67.0719 43.8504 69.7069 42.5078C72.7026 40.9814 76.6241 40.9814 84.4672 40.9814H159.529C167.373 40.9814 171.294 40.9814 174.29 42.5078C176.925 43.8504 179.067 45.9928 180.41 48.6278C181.936 51.6235 181.936 55.545 181.936 63.3881V277.932C181.936 285.775 181.936 289.696 180.41 292.692C179.067 295.327 176.925 297.469 174.29 298.812C171.294 300.338 167.373 300.338 159.529 300.338H84.4672C76.6241 300.338 72.7026 300.338 69.7069 298.812C67.0719 297.469 64.9295 295.327 63.5869 292.692C62.0605 289.696 62.0605 285.775 62.0605 277.932V63.3881Z" fill="url(#paint2_linear_458_3864)" fill-opacity="0.25" style="mix-blend-mode:screen"/>
</g>
<path opacity="0.5" d="M56.7388 117.444H56.3186C56.0866 117.444 55.8985 117.632 55.8985 117.864V133.269C55.8985 133.501 56.0866 133.689 56.3186 133.689H56.7388V117.444Z" fill="black"/>
<path opacity="0.5" d="M56.7388 95.8777H56.3186C56.0866 95.8777 55.8985 96.0658 55.8985 96.2978V111.702C55.8985 111.934 56.0866 112.123 56.3186 112.123H56.7388V95.8777Z" fill="black"/>
<path opacity="0.5" d="M56.7388 78.7927H56.3186C56.0866 78.7927 55.8985 78.9808 55.8985 79.2128V86.495C55.8985 86.727 56.0866 86.9151 56.3186 86.9151H56.7388V78.7927Z" fill="black"/>
<path opacity="0.5" d="M187.258 90.5562H187.678C187.91 90.5562 188.098 90.7442 188.098 90.9763V129.348C188.098 129.58 187.91 129.768 187.678 129.768H187.258V90.5562Z" fill="black"/>
<g opacity="0.75">
<path d="M113.595 40.0012C113.595 39.4598 114.034 39.0209 114.576 39.0209H129.7C130.242 39.0209 130.681 39.4598 130.681 40.0012C130.681 40.5426 130.242 40.9815 129.7 40.9815H114.576C114.034 40.9815 113.595 40.5426 113.595 40.0012Z" fill="black"/>
<path d="M113.595 40.0012C113.595 39.4598 114.034 39.0209 114.576 39.0209H129.7C130.242 39.0209 130.681 39.4598 130.681 40.0012C130.681 40.5426 130.242 40.9815 129.7 40.9815H114.576C114.034 40.9815 113.595 40.5426 113.595 40.0012Z" fill="black"/>
</g>
<path fillRule="evenodd" clipRule="evenodd" d="M99.5916 40.9814C100.292 40.9814 100.992 41.6817 100.992 42.3819V43.7823C100.992 46.876 103.5 49.3839 106.594 49.3839H137.403C140.496 49.3839 143.004 46.876 143.004 43.7823V42.3819C143.004 41.5816 143.605 40.9814 144.405 40.9814H143.004H100.992H99.5916Z" fill="url(#paint3_linear_458_3864)"/>
<path d="M109.394 45.0427C109.394 45.8934 108.705 46.5831 107.854 46.5831C107.003 46.5831 106.313 45.8934 106.313 45.0427C106.313 44.1919 107.003 43.5022 107.854 43.5022C108.705 43.5022 109.394 44.1919 109.394 45.0427Z" fill="black"/>
<path d="M109.394 45.0427C109.394 45.8934 108.705 46.5831 107.854 46.5831C107.003 46.5831 106.313 45.8934 106.313 45.0427C106.313 44.1919 107.003 43.5022 107.854 43.5022C108.705 43.5022 109.394 44.1919 109.394 45.0427Z" fill="black"/>
<path d="M109.394 45.0427C109.394 45.8934 108.705 46.5831 107.854 46.5831C107.003 46.5831 106.313 45.8934 106.313 45.0427C106.313 44.1919 107.003 43.5022 107.854 43.5022C108.705 43.5022 109.394 44.1919 109.394 45.0427Z" fill="black"/>
<path d="M109.394 45.0427C109.394 45.8934 108.705 46.5831 107.854 46.5831C107.003 46.5831 106.313 45.8934 106.313 45.0427C106.313 44.1919 107.003 43.5022 107.854 43.5022C108.705 43.5022 109.394 44.1919 109.394 45.0427Z" fill="black"/>
<g opacity="0.2">
<path d="M118.917 45.1828C118.917 46.4203 117.914 47.4235 116.676 47.4235C115.439 47.4235 114.436 46.4203 114.436 45.1828C114.436 43.9453 115.439 42.9421 116.676 42.9421C117.914 42.9421 118.917 43.9453 118.917 45.1828Z" fill="black"/>
<path d="M118.917 45.1828C118.917 46.4203 117.914 47.4235 116.676 47.4235C115.439 47.4235 114.436 46.4203 114.436 45.1828C114.436 43.9453 115.439 42.9421 116.676 42.9421C117.914 42.9421 118.917 43.9453 118.917 45.1828Z" fill="black"/>
<path d="M118.917 45.1828C118.917 46.4203 117.914 47.4235 116.676 47.4235C115.439 47.4235 114.436 46.4203 114.436 45.1828C114.436 43.9453 115.439 42.9421 116.676 42.9421C117.914 42.9421 118.917 43.9453 118.917 45.1828Z" fill="black"/>
<path d="M118.917 45.1828C118.917 46.4203 117.914 47.4235 116.676 47.4235C115.439 47.4235 114.436 46.4203 114.436 45.1828C114.436 43.9453 115.439 42.9421 116.676 42.9421C117.914 42.9421 118.917 43.9453 118.917 45.1828Z" fill="black"/>
</g>
<g opacity="0.2">
<path d="M128.44 45.1828C128.44 46.4203 127.437 47.4235 126.199 47.4235C124.962 47.4235 123.959 46.4203 123.959 45.1828C123.959 43.9453 124.962 42.9421 126.199 42.9421C127.437 42.9421 128.44 43.9453 128.44 45.1828Z" fill="black"/>
<path d="M128.44 45.1828C128.44 46.4203 127.437 47.4235 126.199 47.4235C124.962 47.4235 123.959 46.4203 123.959 45.1828C123.959 43.9453 124.962 42.9421 126.199 42.9421C127.437 42.9421 128.44 43.9453 128.44 45.1828Z" fill="black"/>
<path d="M128.44 45.1828C128.44 46.4203 127.437 47.4235 126.199 47.4235C124.962 47.4235 123.959 46.4203 123.959 45.1828C123.959 43.9453 124.962 42.9421 126.199 42.9421C127.437 42.9421 128.44 43.9453 128.44 45.1828Z" fill="black"/>
<path d="M128.44 45.1828C128.44 46.4203 127.437 47.4235 126.199 47.4235C124.962 47.4235 123.959 46.4203 123.959 45.1828C123.959 43.9453 124.962 42.9421 126.199 42.9421C127.437 42.9421 128.44 43.9453 128.44 45.1828Z" fill="black"/>
</g>
<g opacity="0.2">
<path d="M137.963 45.1828C137.963 46.4203 136.96 47.4235 135.722 47.4235C134.485 47.4235 133.481 46.4203 133.481 45.1828C133.481 43.9453 134.485 42.9421 135.722 42.9421C136.96 42.9421 137.963 43.9453 137.963 45.1828Z" fill="black"/>
<path d="M137.963 45.1828C137.963 46.4203 136.96 47.4235 135.722 47.4235C134.485 47.4235 133.481 46.4203 133.481 45.1828C133.481 43.9453 134.485 42.9421 135.722 42.9421C136.96 42.9421 137.963 43.9453 137.963 45.1828Z" fill="black"/>
<path d="M137.963 45.1828C137.963 46.4203 136.96 47.4235 135.722 47.4235C134.485 47.4235 133.481 46.4203 133.481 45.1828C133.481 43.9453 134.485 42.9421 135.722 42.9421C136.96 42.9421 137.963 43.9453 137.963 45.1828Z" fill="black"/>
<path d="M137.963 45.1828C137.963 46.4203 136.96 47.4235 135.722 47.4235C134.485 47.4235 133.481 46.4203 133.481 45.1828C133.481 43.9453 134.485 42.9421 135.722 42.9421C136.96 42.9421 137.963 43.9453 137.963 45.1828Z" fill="black"/>
</g>
<path opacity="0.15" d="M108.834 45.0428C108.834 45.5842 108.395 46.0231 107.854 46.0231C107.313 46.0231 106.874 45.5842 106.874 45.0428C106.874 44.5014 107.313 44.0625 107.854 44.0625C108.395 44.0625 108.834 44.5014 108.834 45.0428Z" fill="white"/>
<path d="M158.409 35.6598H160.65V36.5H158.409V35.6598Z" fill="#171717"/>
<path opacity="0.25" d="M157.849 35.6598H158.409V36.5H157.849V35.6598Z" fill="white"/>
<path opacity="0.25" d="M160.65 35.6598H161.21V36.5H160.65V35.6598Z" fill="white"/>
<path d="M187.258 62.2677L187.258 64.5084L186.417 64.5084L186.417 62.2677L187.258 62.2677Z" fill="#070707"/>
<path opacity="0.25" d="M187.257 61.7076L187.257 62.2678L186.417 62.2678L186.417 61.7076L187.257 61.7076Z" fill="white"/>
<path opacity="0.25" d="M187.258 64.5084L187.258 65.0686L186.417 65.0686L186.417 64.5084L187.258 64.5084Z" fill="white"/>
<path d="M57.5789 62.2677L57.5789 64.5084L56.7386 64.5084L56.7386 62.2677L57.5789 62.2677Z" fill="#2E2E2E"/>
<path opacity="0.5" d="M57.5789 61.7076L57.5789 62.2678L56.7386 62.2678L56.7386 61.7076L57.5789 61.7076Z" fill="white"/>
<path opacity="0.5" d="M57.5789 64.5084L57.5789 65.0686L56.7386 65.0686L56.7386 64.5084L57.5789 64.5084Z" fill="white"/>
<path d="M57.5789 276.812L57.5789 279.053L56.7386 279.053L56.7386 276.812L57.5789 276.812Z" fill="#070707"/>
<path opacity="0.1" d="M57.5789 276.252L57.5789 276.812L56.7386 276.812L56.7386 276.252L57.5789 276.252Z" fill="white"/>
<path opacity="0.1" d="M57.5789 279.053L57.5789 279.613L56.7386 279.613L56.7386 279.053L57.5789 279.053Z" fill="white"/>
<path d="M85.5874 305.66L83.3467 305.66L83.3467 304.82L85.5874 304.82L85.5874 305.66Z" fill="#010101"/>
<path opacity="0.1" d="M86.1475 305.66L85.5873 305.66L85.5873 304.82L86.1475 304.82L86.1475 305.66Z" fill="white"/>
<path opacity="0.1" d="M83.3472 305.66L82.787 305.66L82.787 304.82L83.3472 304.82L83.3472 305.66Z" fill="white"/>
<path d="M187.257 276.812L187.257 279.053L186.417 279.053L186.417 276.812L187.257 276.812Z" fill="black"/>
<path opacity="0.1" d="M187.257 276.252L187.257 276.812L186.417 276.812L186.417 276.252L187.257 276.252Z" fill="white"/>
<path opacity="0.1" d="M187.257 279.053L187.257 279.613L186.417 279.613L186.417 279.053L187.257 279.053Z" fill="white"/>
<path d="M229.778 65.6289C229.778 55.4329 229.778 50.3349 231.762 46.4406C233.508 43.015 236.293 40.2299 239.719 38.4845C243.613 36.5002 248.711 36.5002 258.907 36.5002H329.488C339.684 36.5002 344.782 36.5002 348.676 38.4845C352.102 40.2299 354.887 43.015 356.632 46.4406C358.616 50.3349 358.616 55.4329 358.616 65.6289V275.691C358.616 285.887 358.616 290.985 356.632 294.88C354.887 298.305 352.102 301.09 348.676 302.836C344.782 304.82 339.684 304.82 329.488 304.82H258.907C248.711 304.82 243.613 304.82 239.719 302.836C236.293 301.09 233.508 298.305 231.762 294.88C229.778 290.985 229.778 285.887 229.778 275.691V65.6289Z" fill="url(#paint4_linear_458_3864)"/>
<g filter="url(#filter1_dd_458_3864)">
<path fillRule="evenodd" clipRule="evenodd" d="M329.527 35.6599C334.592 35.6599 338.444 35.6599 341.514 35.9107C344.601 36.163 346.972 36.6732 349.058 37.7358C352.641 39.5617 355.555 42.4753 357.381 46.059C358.444 48.1444 358.954 50.5154 359.206 53.6031C359.457 56.6731 359.457 60.5248 359.457 65.5896V275.73C359.457 280.795 359.457 284.647 359.206 287.717C358.954 290.805 358.444 293.175 357.381 295.261C355.555 298.845 352.641 301.758 349.058 303.584C346.972 304.647 344.601 305.157 341.514 305.409C338.444 305.66 334.592 305.66 329.527 305.66H258.868C253.803 305.66 249.951 305.66 246.881 305.409C243.794 305.157 241.423 304.647 239.337 303.584C235.754 301.758 232.84 298.845 231.014 295.261C229.951 293.175 229.441 290.805 229.189 287.717C228.938 284.647 228.938 280.795 228.938 275.73V65.5894C228.938 60.5247 228.938 56.6731 229.189 53.6031C229.441 50.5154 229.951 48.1444 231.014 46.059C232.84 42.4753 235.754 39.5617 239.337 37.7358C241.423 36.6732 243.794 36.163 246.881 35.9107C249.951 35.6599 253.803 35.6599 258.868 35.6599H329.527ZM231.763 46.4405C229.778 50.3348 229.778 55.4328 229.778 65.6288V275.691C229.778 285.887 229.778 290.985 231.763 294.879C233.508 298.305 236.293 301.09 239.719 302.835C243.613 304.82 248.711 304.82 258.907 304.82H329.488C339.684 304.82 344.782 304.82 348.676 302.835C352.102 301.09 354.887 298.305 356.632 294.879C358.617 290.985 358.617 285.887 358.617 275.691V65.6288C358.617 55.4328 358.617 50.3348 356.632 46.4405C354.887 43.0149 352.102 40.2298 348.676 38.4844C344.782 36.5002 339.684 36.5002 329.488 36.5002H258.907C248.711 36.5002 243.613 36.5002 239.719 38.4844C236.293 40.2298 233.508 43.0149 231.763 46.4405Z" fill="url(#paint5_linear_458_3864)"/>
</g>
<rect x="234.26" y="40.9814" width="119.876" height="259.357" rx="13.8809" fill="#2143E6"/>
<g opacity="0.6">
<path d="M234.26 63.3881C234.26 55.545 234.26 51.6235 235.786 48.6278C237.129 45.9928 239.271 43.8504 241.906 42.5078C244.902 40.9814 248.824 40.9814 256.667 40.9814H331.729C339.572 40.9814 343.494 40.9814 346.489 42.5078C349.124 43.8504 351.267 45.9928 352.609 48.6278C354.136 51.6235 354.136 55.545 354.136 63.3881V277.932C354.136 285.775 354.136 289.696 352.609 292.692C351.267 295.327 349.124 297.469 346.489 298.812C343.494 300.338 339.572 300.338 331.729 300.338H256.667C248.824 300.338 244.902 300.338 241.906 298.812C239.271 297.469 237.129 295.327 235.786 292.692C234.26 289.696 234.26 285.775 234.26 277.932V63.3881Z" fill="url(#paint6_linear_458_3864)" fill-opacity="0.25" style="mix-blend-mode:screen"/>
</g>
<path opacity="0.5" d="M228.938 117.444H228.518C228.286 117.444 228.098 117.632 228.098 117.864V133.269C228.098 133.501 228.286 133.689 228.518 133.689H228.938V117.444Z" fill="black"/>
<path opacity="0.5" d="M228.938 95.8777H228.518C228.286 95.8777 228.098 96.0658 228.098 96.2978V111.702C228.098 111.934 228.286 112.123 228.518 112.123H228.938V95.8777Z" fill="black"/>
<path opacity="0.5" d="M228.938 78.7927H228.518C228.286 78.7927 228.098 78.9808 228.098 79.2128V86.495C228.098 86.727 228.286 86.9151 228.518 86.9151H228.938V78.7927Z" fill="black"/>
<path opacity="0.5" d="M359.457 90.5562H359.877C360.109 90.5562 360.297 90.7442 360.297 90.9763V129.348C360.297 129.58 360.109 129.768 359.877 129.768H359.457V90.5562Z" fill="black"/>
<g opacity="0.75">
<path d="M285.795 40.0012C285.795 39.4598 286.234 39.0209 286.775 39.0209H301.9C302.441 39.0209 302.88 39.4598 302.88 40.0012C302.88 40.5426 302.441 40.9815 301.9 40.9815H286.775C286.234 40.9815 285.795 40.5426 285.795 40.0012Z" fill="black"/>
<path d="M285.795 40.0012C285.795 39.4598 286.234 39.0209 286.775 39.0209H301.9C302.441 39.0209 302.88 39.4598 302.88 40.0012C302.88 40.5426 302.441 40.9815 301.9 40.9815H286.775C286.234 40.9815 285.795 40.5426 285.795 40.0012Z" fill="black"/>
</g>
<path fillRule="evenodd" clipRule="evenodd" d="M271.791 40.9814C272.491 40.9814 273.191 41.6817 273.191 42.3819V43.7823C273.191 46.876 275.699 49.3839 278.793 49.3839H309.602C312.696 49.3839 315.204 46.876 315.204 43.7823V42.3819C315.204 41.5816 315.804 40.9814 316.604 40.9814H315.204H273.191H271.791Z" fill="url(#paint7_linear_458_3864)"/>
<path d="M281.594 45.0427C281.594 45.8934 280.904 46.5831 280.053 46.5831C279.203 46.5831 278.513 45.8934 278.513 45.0427C278.513 44.1919 279.203 43.5022 280.053 43.5022C280.904 43.5022 281.594 44.1919 281.594 45.0427Z" fill="black"/>
<path d="M281.594 45.0427C281.594 45.8934 280.904 46.5831 280.053 46.5831C279.203 46.5831 278.513 45.8934 278.513 45.0427C278.513 44.1919 279.203 43.5022 280.053 43.5022C280.904 43.5022 281.594 44.1919 281.594 45.0427Z" fill="black"/>
<path d="M281.594 45.0427C281.594 45.8934 280.904 46.5831 280.053 46.5831C279.203 46.5831 278.513 45.8934 278.513 45.0427C278.513 44.1919 279.203 43.5022 280.053 43.5022C280.904 43.5022 281.594 44.1919 281.594 45.0427Z" fill="black"/>
<path d="M281.594 45.0427C281.594 45.8934 280.904 46.5831 280.053 46.5831C279.203 46.5831 278.513 45.8934 278.513 45.0427C278.513 44.1919 279.203 43.5022 280.053 43.5022C280.904 43.5022 281.594 44.1919 281.594 45.0427Z" fill="black"/>
<g opacity="0.2">
<path d="M291.116 45.1828C291.116 46.4203 290.113 47.4235 288.876 47.4235C287.638 47.4235 286.635 46.4203 286.635 45.1828C286.635 43.9453 287.638 42.9421 288.876 42.9421C290.113 42.9421 291.116 43.9453 291.116 45.1828Z" fill="black"/>
<path d="M291.116 45.1828C291.116 46.4203 290.113 47.4235 288.876 47.4235C287.638 47.4235 286.635 46.4203 286.635 45.1828C286.635 43.9453 287.638 42.9421 288.876 42.9421C290.113 42.9421 291.116 43.9453 291.116 45.1828Z" fill="black"/>
<path d="M291.116 45.1828C291.116 46.4203 290.113 47.4235 288.876 47.4235C287.638 47.4235 286.635 46.4203 286.635 45.1828C286.635 43.9453 287.638 42.9421 288.876 42.9421C290.113 42.9421 291.116 43.9453 291.116 45.1828Z" fill="black"/>
<path d="M291.116 45.1828C291.116 46.4203 290.113 47.4235 288.876 47.4235C287.638 47.4235 286.635 46.4203 286.635 45.1828C286.635 43.9453 287.638 42.9421 288.876 42.9421C290.113 42.9421 291.116 43.9453 291.116 45.1828Z" fill="black"/>
</g>
<g opacity="0.2">
<path d="M300.639 45.1828C300.639 46.4203 299.636 47.4235 298.399 47.4235C297.161 47.4235 296.158 46.4203 296.158 45.1828C296.158 43.9453 297.161 42.9421 298.399 42.9421C299.636 42.9421 300.639 43.9453 300.639 45.1828Z" fill="black"/>
<path d="M300.639 45.1828C300.639 46.4203 299.636 47.4235 298.399 47.4235C297.161 47.4235 296.158 46.4203 296.158 45.1828C296.158 43.9453 297.161 42.9421 298.399 42.9421C299.636 42.9421 300.639 43.9453 300.639 45.1828Z" fill="black"/>
<path d="M300.639 45.1828C300.639 46.4203 299.636 47.4235 298.399 47.4235C297.161 47.4235 296.158 46.4203 296.158 45.1828C296.158 43.9453 297.161 42.9421 298.399 42.9421C299.636 42.9421 300.639 43.9453 300.639 45.1828Z" fill="black"/>
<path d="M300.639 45.1828C300.639 46.4203 299.636 47.4235 298.399 47.4235C297.161 47.4235 296.158 46.4203 296.158 45.1828C296.158 43.9453 297.161 42.9421 298.399 42.9421C299.636 42.9421 300.639 43.9453 300.639 45.1828Z" fill="black"/>
</g>
<g opacity="0.2">
<path d="M310.162 45.1828C310.162 46.4203 309.159 47.4235 307.921 47.4235C306.684 47.4235 305.681 46.4203 305.681 45.1828C305.681 43.9453 306.684 42.9421 307.921 42.9421C309.159 42.9421 310.162 43.9453 310.162 45.1828Z" fill="black"/>
<path d="M310.162 45.1828C310.162 46.4203 309.159 47.4235 307.921 47.4235C306.684 47.4235 305.681 46.4203 305.681 45.1828C305.681 43.9453 306.684 42.9421 307.921 42.9421C309.159 42.9421 310.162 43.9453 310.162 45.1828Z" fill="black"/>
<path d="M310.162 45.1828C310.162 46.4203 309.159 47.4235 307.921 47.4235C306.684 47.4235 305.681 46.4203 305.681 45.1828C305.681 43.9453 306.684 42.9421 307.921 42.9421C309.159 42.9421 310.162 43.9453 310.162 45.1828Z" fill="black"/>
<path d="M310.162 45.1828C310.162 46.4203 309.159 47.4235 307.921 47.4235C306.684 47.4235 305.681 46.4203 305.681 45.1828C305.681 43.9453 306.684 42.9421 307.921 42.9421C309.159 42.9421 310.162 43.9453 310.162 45.1828Z" fill="black"/>
</g>
<path opacity="0.15" d="M281.034 45.0428C281.034 45.5842 280.595 46.0231 280.053 46.0231C279.512 46.0231 279.073 45.5842 279.073 45.0428C279.073 44.5014 279.512 44.0625 280.053 44.0625C280.595 44.0625 281.034 44.5014 281.034 45.0428Z" fill="white"/>
<path d="M330.609 35.6598H332.85V36.5H330.609V35.6598Z" fill="#171717"/>
<path opacity="0.25" d="M330.049 35.6598H330.609V36.5H330.049V35.6598Z" fill="white"/>
<path opacity="0.25" d="M332.849 35.6598H333.409V36.5H332.849V35.6598Z" fill="white"/>
<path d="M359.457 62.2677L359.457 64.5084L358.617 64.5084L358.617 62.2677L359.457 62.2677Z" fill="#070707"/>
<path opacity="0.25" d="M359.457 61.7076L359.457 62.2678L358.617 62.2678L358.617 61.7076L359.457 61.7076Z" fill="white"/>
<path opacity="0.25" d="M359.457 64.5084L359.457 65.0686L358.617 65.0686L358.617 64.5084L359.457 64.5084Z" fill="white"/>
<path d="M229.778 62.2677L229.778 64.5084L228.938 64.5084L228.938 62.2677L229.778 62.2677Z" fill="#2E2E2E"/>
<path opacity="0.5" d="M229.778 61.7076L229.778 62.2678L228.938 62.2678L228.938 61.7076L229.778 61.7076Z" fill="white"/>
<path opacity="0.5" d="M229.778 64.5084L229.778 65.0686L228.938 65.0686L228.938 64.5084L229.778 64.5084Z" fill="white"/>
<path d="M229.778 276.812L229.778 279.053L228.938 279.053L228.938 276.812L229.778 276.812Z" fill="#070707"/>
<path opacity="0.1" d="M229.778 276.252L229.778 276.812L228.938 276.812L228.938 276.252L229.778 276.252Z" fill="white"/>
<path opacity="0.1" d="M229.778 279.053L229.778 279.613L228.938 279.613L228.938 279.053L229.778 279.053Z" fill="white"/>
<path d="M257.786 305.66L255.546 305.66L255.546 304.82L257.786 304.82L257.786 305.66Z" fill="#010101"/>
<path opacity="0.1" d="M258.347 305.66L257.787 305.66L257.787 304.82L258.347 304.82L258.347 305.66Z" fill="white"/>
<path opacity="0.1" d="M255.546 305.66L254.986 305.66L254.986 304.82L255.546 304.82L255.546 305.66Z" fill="white"/>
<path d="M359.457 276.812L359.457 279.053L358.617 279.053L358.617 276.812L359.457 276.812Z" fill="black"/>
<path opacity="0.1" d="M359.457 276.252L359.457 276.812L358.617 276.812L358.617 276.252L359.457 276.252Z" fill="white"/>
<path opacity="0.1" d="M359.457 279.053L359.457 279.613L358.617 279.613L358.617 279.053L359.457 279.053Z" fill="white"/>
<defs>
<filter id="filter0_dd_458_3864" x="21.4483" y="0.369453" width="281.764" height="421.245" filterUnits="userSpaceOnUse" color-interpolation-filters="sRGB">
<feFlood flood-opacity="0" result="BackgroundImageFix"/>
<feColorMatrix in="SourceAlpha" type="matrix" values="0 0 0 0 0 0 0 0 0 0 0 0 0 0 0 0 0 0 127 0" result="hardAlpha"/>
<feOffset dx="40.332" dy="40.332"/>
<feGaussianBlur stdDeviation="37.8112"/>
<feColorMatrix type="matrix" values="0 0 0 0 0 0 0 0 0 0 0 0 0 0 0 0 0 0 0.25 0"/>
<feBlend mode="normal" in2="BackgroundImageFix" result="effect1_dropShadow_458_3864"/>
<feColorMatrix in="SourceAlpha" type="matrix" values="0 0 0 0 0 0 0 0 0 0 0 0 0 0 0 0 0 0 127 0" result="hardAlpha"/>
<feOffset dx="10.083" dy="10.083"/>
<feGaussianBlur stdDeviation="12.6037"/>
<feColorMatrix type="matrix" values="0 0 0 0 0 0 0 0 0 0 0 0 0 0 0 0 0 0 0.35 0"/>
<feBlend mode="normal" in2="effect1_dropShadow_458_3864" result="effect2_dropShadow_458_3864"/>
<feBlend mode="normal" in="SourceGraphic" in2="effect2_dropShadow_458_3864" result="shape"/>
</filter>
<filter id="filter1_dd_458_3864" x="193.648" y="0.369453" width="281.764" height="421.245" filterUnits="userSpaceOnUse" color-interpolation-filters="sRGB">
<feFlood flood-opacity="0" result="BackgroundImageFix"/>
<feColorMatrix in="SourceAlpha" type="matrix" values="0 0 0 0 0 0 0 0 0 0 0 0 0 0 0 0 0 0 127 0" result="hardAlpha"/>
<feOffset dx="40.332" dy="40.332"/>
<feGaussianBlur stdDeviation="37.8112"/>
<feColorMatrix type="matrix" values="0 0 0 0 0 0 0 0 0 0 0 0 0 0 0 0 0 0 0.25 0"/>
<feBlend mode="normal" in2="BackgroundImageFix" result="effect1_dropShadow_458_3864"/>
<feColorMatrix in="SourceAlpha" type="matrix" values="0 0 0 0 0 0 0 0 0 0 0 0 0 0 0 0 0 0 127 0" result="hardAlpha"/>
<feOffset dx="10.083" dy="10.083"/>
<feGaussianBlur stdDeviation="12.6037"/>
<feColorMatrix type="matrix" values="0 0 0 0 0 0 0 0 0 0 0 0 0 0 0 0 0 0 0.35 0"/>
<feBlend mode="normal" in2="effect1_dropShadow_458_3864" result="effect2_dropShadow_458_3864"/>
<feBlend mode="normal" in="SourceGraphic" in2="effect2_dropShadow_458_3864" result="shape"/>
</filter>
<linearGradient id="paint0_linear_458_3864" x1="73.3062" y1="36.5002" x2="146.225" y2="68.9466" gradientUnits="userSpaceOnUse">
<stop stop-color="#2F2F2F"/>
<stop offset="1"/>
</linearGradient>
<linearGradient id="paint1_linear_458_3864" x1="57.579" y1="38.7408" x2="216.526" y2="216.734" gradientUnits="userSpaceOnUse">
<stop stop-color="white" stop-opacity="0.3"/>
<stop offset="1" stop-color="#010101"/>
</linearGradient>
<linearGradient id="paint2_linear_458_3864" x1="63.157" y1="42.4447" x2="174.843" y2="153.839" gradientUnits="userSpaceOnUse">
<stop stop-color="white"/>
<stop offset="0.645833" stop-color="white" stop-opacity="0"/>
</linearGradient>
<linearGradient id="paint3_linear_458_3864" x1="99.8716" y1="40.9814" x2="144.125" y2="40.9814" gradientUnits="userSpaceOnUse">
<stop stop-color="#202020"/>
<stop offset="1" stop-color="#090909"/>
</linearGradient>
<linearGradient id="paint4_linear_458_3864" x1="245.506" y1="36.5002" x2="318.424" y2="68.9466" gradientUnits="userSpaceOnUse">
<stop stop-color="#2F2F2F"/>
<stop offset="1"/>
</linearGradient>
<linearGradient id="paint5_linear_458_3864" x1="229.778" y1="38.7408" x2="388.725" y2="216.734" gradientUnits="userSpaceOnUse">
<stop stop-color="white" stop-opacity="0.3"/>
<stop offset="1" stop-color="#010101"/>
</linearGradient>
<linearGradient id="paint6_linear_458_3864" x1="235.356" y1="42.4447" x2="347.043" y2="153.839" gradientUnits="userSpaceOnUse">
<stop stop-color="white"/>
<stop offset="0.645833" stop-color="white" stop-opacity="0"/>
</linearGradient>
<linearGradient id="paint7_linear_458_3864" x1="272.071" y1="40.9814" x2="316.324" y2="40.9814" gradientUnits="userSpaceOnUse">
<stop stop-color="#202020"/>
<stop offset="1" stop-color="#090909"/>
</linearGradient>
</defs>
</svg>
