<svg width="40" height="41" viewBox="0 0 40 41" fill="none" xmlns="http://www.w3.org/2000/svg">
<rect y="0.513184" width="40" height="40" rx="20" fill="white"/>
<path fillRule="evenodd" clipRule="evenodd" d="M15.8076 11.4318C12.9338 12.7607 10.7976 15.4135 10.1813 18.6077C12.1138 18.6797 15.2968 18.5867 18.4566 17.8266C18.8739 17.7262 19.2886 17.6147 19.6984 17.4911C18.5833 15.4427 17.3049 13.4793 15.8985 11.5911C15.861 11.5407 15.8308 11.4872 15.8076 11.4318ZM10 20.5132C10 20.3753 10.0028 20.2381 10.0083 20.1015C10.0175 20.1022 10.0268 20.1028 10.036 20.1032C12.0463 20.1846 15.4242 20.0988 18.8074 19.285C19.3384 19.1572 19.8726 19.0108 20.404 18.8431C20.6976 19.4307 20.9777 20.0253 21.2433 20.627C20.7138 20.7778 20.1951 20.9535 19.6907 21.1528C16.5878 22.3787 13.9464 24.5268 12.6625 27.3074C11.0101 25.5237 10 23.1364 10 20.5132ZM13.8024 28.3616C15.5062 29.7089 17.6592 30.5132 20 30.5132C21.421 30.5132 22.7727 30.2168 23.9968 29.6825C23.9672 29.6209 23.9455 29.5543 23.9334 29.4836C23.487 26.8781 22.7697 24.3949 21.8277 22.0213C21.2863 22.1686 20.7562 22.3447 20.2419 22.5479C17.3014 23.7096 14.9576 25.7202 13.9222 28.1672C13.8915 28.2396 13.8508 28.3048 13.8024 28.3616ZM23.3114 21.6954C24.2124 24.0061 24.9105 26.4225 25.3636 28.9546C27.7354 27.4444 29.4279 24.962 29.8798 22.0686C29.8378 22.0636 29.7958 22.055 29.754 22.0425C27.6631 21.4209 25.4344 21.3378 23.3114 21.6954ZM29.9999 20.5521C30 20.5391 30 20.5262 30 20.5132C30 18.0637 29.1193 15.8199 27.6573 14.0812C26.2007 16.0851 24.0919 17.4333 21.8275 18.3368C22.1429 18.9748 22.4431 19.6212 22.7271 20.2762C25.0985 19.8275 27.6153 19.877 29.9999 20.5521ZM20 10.5132C22.5276 10.5132 24.8361 11.4509 26.5967 12.9974C26.5719 13.0237 26.5487 13.052 26.5274 13.0824C25.2557 14.8952 23.3181 16.1475 21.1365 16.9971C19.9949 14.8719 18.6864 12.8414 17.2504 10.8959C18.124 10.6467 19.0464 10.5132 20 10.5132Z" fill="#100F10"/>
</svg>
