<svg width="40" height="41" viewBox="0 0 40 41" fill="none" xmlns="http://www.w3.org/2000/svg">
    <rect y="0.513184" width="40" height="40" rx="20" fill="white"/>
    <path fillRule="evenodd" clipRule="evenodd" d="M22 10.0132C20.5413 10.0132 19.1424 10.5926 18.1109 11.6241C17.0795 12.6555 16.5 14.0545 16.5 15.5132V18.0132H14C13.7239 18.0132 13.5 18.237 13.5 18.5132V22.5132C13.5 22.7893 13.7239 23.0132 14 23.0132H16.5V30.5132C16.5 30.7893 16.7239 31.0132 17 31.0132H21C21.2761 31.0132 21.5 30.7893 21.5 30.5132V23.0132H24C24.2294 23.0132 24.4294 22.857 24.4851 22.6345L25.4851 18.6345C25.5224 18.4851 25.4889 18.3268 25.3941 18.2055C25.2993 18.0841 25.154 18.0132 25 18.0132H21.5V15.5132C21.5 15.3806 21.5527 15.2534 21.6464 15.1596C21.7402 15.0659 21.8674 15.0132 22 15.0132H25C25.2761 15.0132 25.5 14.7893 25.5 14.5132V10.5132C25.5 10.237 25.2761 10.0132 25 10.0132H22Z" fill="#100F10"/>
</svg>
