<svg width="31" height="49" viewBox="0 0 31 49" fill="none" xmlns="http://www.w3.org/2000/svg">
    <path fill-rule="evenodd" clip-rule="evenodd" d="M28.1169 24.3298C29.5843 21.9264 30.4336 19.0787 30.4336 16.0258C30.4336 7.42648 23.6954 0.455383 15.3834 0.455383C7.07144 0.455383 0.333252 7.42648 0.333252 16.0258C0.333252 19.0789 1.18262 21.9267 2.65024 24.3302C1.18279 26.7336 0.333523 29.5813 0.333523 32.6342C0.333523 41.2335 7.07171 48.2046 15.3837 48.2046C23.6957 48.2046 30.4339 41.2335 30.4339 32.6342C30.4339 29.5811 29.5845 26.7332 28.1169 24.3298ZM28.1169 24.3298C25.4508 19.9636 20.7446 17.0638 15.3837 17.0638C10.0226 17.0638 5.31624 19.9638 2.65024 24.3302C5.31628 28.6964 10.0225 31.5961 15.3834 31.5961C20.7445 31.5961 25.4509 28.6962 28.1169 24.3298Z" fill="#04A777"/>
</svg>
