<svg width="40" height="41" viewBox="0 0 40 41" fill="none" xmlns="http://www.w3.org/2000/svg">
<rect y="0.513184" width="40" height="40" rx="20" fill="white"/>
<path fillRule="evenodd" clipRule="evenodd" d="M11 24.5132V16.5132C11 13.7518 13.2386 11.5132 16 11.5132H24C26.7614 11.5132 29 13.7518 29 16.5132V24.5132C29 27.2746 26.7614 29.5132 24 29.5132H16C13.2386 29.5132 11 27.2746 11 24.5132ZM20 17.2632C18.2051 17.2632 16.75 18.7183 16.75 20.5132C16.75 22.3081 18.2051 23.7632 20 23.7632C21.7949 23.7632 23.25 22.3081 23.25 20.5132C23.25 18.7183 21.7949 17.2632 20 17.2632ZM15.25 20.5132C15.25 17.8898 17.3766 15.7632 20 15.7632C22.6234 15.7632 24.75 17.8898 24.75 20.5132C24.75 23.1365 22.6234 25.2632 20 25.2632C17.3766 25.2632 15.25 23.1365 15.25 20.5132ZM26.0675 15.5138C26.3446 15.2059 26.3196 14.7317 26.0117 14.4546C25.7038 14.1775 25.2296 14.2025 24.9525 14.5103L24.9425 14.5215C24.6654 14.8293 24.6904 15.3036 24.9983 15.5807C25.3062 15.8577 25.7804 15.8328 26.0575 15.5249L26.0675 15.5138Z" fill="#100F10"/>
</svg>
