<svg width="40" height="41" viewBox="0 0 40 41" fill="none" xmlns="http://www.w3.org/2000/svg">
    <rect y="0.513184" width="40" height="40" rx="20" fill="white"/>
    <path fillRule="evenodd" clipRule="evenodd" d="M15.9122 14.318C15.8896 13.2935 15.157 12.5132 13.9674 12.5132C12.7777 12.5132 12 13.2935 12 14.318C12 15.3212 12.7548 16.124 13.9222 16.124H13.9445C15.157 16.124 15.9122 15.3212 15.9122 14.318ZM15.6832 17.5501H12.2056V27.9987H15.6832V17.5501ZM24.2206 17.3047C26.509 17.3047 28.2246 18.7984 28.2246 22.0077L28.2244 27.9986H24.747V22.4086C24.747 21.0045 24.2438 20.0464 22.9849 20.0464C22.0242 20.0464 21.452 20.6923 21.2006 21.3162C21.1087 21.5397 21.0861 21.8513 21.0861 22.1635V27.9989H17.6082C17.6082 27.9989 17.654 18.5308 17.6082 17.5503H21.0861V19.0303C21.5477 18.3188 22.3743 17.3047 24.2206 17.3047Z" fill="#100F10"/>
</svg>
