<svg width="768" height="1149" viewBox="0 0 768 1149" fill="none" xmlns="http://www.w3.org/2000/svg">
<path d="M98.5758 178.611C98.5758 150.845 98.5758 136.963 103.979 126.358C108.732 117.029 116.317 109.445 125.645 104.692C136.25 99.2886 150.133 99.2886 177.898 99.2886H370.101C397.867 99.2886 411.749 99.2886 422.354 104.692C431.683 109.445 439.267 117.029 444.02 126.358C449.423 136.963 449.423 150.845 449.423 178.611V750.645C449.423 778.41 449.423 792.293 444.02 802.898C439.267 812.226 431.683 819.81 422.354 824.563C411.749 829.967 397.867 829.967 370.101 829.967H177.898C150.133 829.967 136.25 829.967 125.645 824.563C116.317 819.81 108.732 812.226 103.979 802.898C98.5758 792.293 98.5758 778.41 98.5758 750.645V178.611Z" fill="url(#paint0_linear_401_18866)"/>
<g filter="url(#filter0_dd_401_18866)">
<path fillRule="evenodd" clipRule="evenodd" d="M370.209 97.0002C384.001 97.0002 394.489 97.0002 402.85 97.6833C411.258 98.3703 417.715 99.7596 423.393 102.653C433.152 107.626 441.086 115.56 446.059 125.319C448.952 130.997 450.342 137.454 451.029 145.862C451.712 154.223 451.712 164.711 451.712 178.504V750.751C451.712 764.543 451.712 775.032 451.029 783.392C450.342 791.8 448.952 798.257 446.059 803.936C441.086 813.695 433.152 821.629 423.393 826.601C417.715 829.495 411.258 830.884 402.85 831.571C394.489 832.254 384.001 832.254 370.208 832.254H177.792C163.999 832.254 153.511 832.254 145.15 831.571C136.742 830.884 130.285 829.495 124.607 826.601C114.848 821.629 106.913 813.695 101.941 803.936C99.0475 798.257 97.6581 791.8 96.9711 783.392C96.2881 775.032 96.2881 764.543 96.2881 750.751V178.503C96.2881 164.711 96.2881 154.223 96.9711 145.862C97.6581 137.454 99.0475 130.997 101.941 125.319C106.913 115.56 114.848 107.626 124.607 102.653C130.285 99.7596 136.742 98.3703 145.15 97.6833C153.51 97.0002 163.999 97.0002 177.791 97.0002H370.209ZM103.98 126.357C98.5762 136.962 98.5762 150.845 98.5762 178.61V750.644C98.5762 778.409 98.5762 792.292 103.98 802.897C108.733 812.225 116.317 819.81 125.645 824.563C136.25 829.966 150.133 829.966 177.898 829.966H370.102C397.867 829.966 411.75 829.966 422.355 824.563C431.683 819.81 439.267 812.225 444.02 802.897C449.424 792.292 449.424 778.409 449.424 750.644V178.61C449.424 150.845 449.424 136.962 444.02 126.357C439.267 117.029 431.683 109.445 422.355 104.692C411.75 99.2884 397.867 99.2884 370.102 99.2884H177.898C150.133 99.2884 136.25 99.2884 125.645 104.692C116.317 109.445 108.733 117.029 103.98 126.357Z" fill="url(#paint1_linear_401_18866)"/>
</g>
<rect x="110.78" y="111.492" width="326.441" height="706.271" rx="37.8" fill="#E3E3E3"/>
<g opacity="0.6">
<path d="M110.78 172.509C110.78 151.151 110.78 140.472 114.937 132.314C118.593 125.138 124.427 119.304 131.603 115.648C139.76 111.492 150.439 111.492 171.797 111.492H376.204C397.562 111.492 408.241 111.492 416.398 115.648C423.574 119.304 429.408 125.138 433.064 132.314C437.221 140.472 437.221 151.151 437.221 172.509V756.746C437.221 778.104 437.221 788.783 433.064 796.94C429.408 804.116 423.574 809.95 416.398 813.606C408.241 817.763 397.562 817.763 376.204 817.763H171.797C150.439 817.763 139.76 817.763 131.603 813.606C124.427 809.95 118.593 804.116 114.937 796.94C110.78 788.783 110.78 778.104 110.78 756.746V172.509Z" fill="url(#paint2_linear_401_18866)" fill-opacity="0.25" style="mix-blend-mode:screen"/>
</g>
<path opacity="0.5" d="M96.2881 319.712H95.144C94.5122 319.712 94 320.224 94 320.856V362.805C94 363.437 94.5122 363.949 95.144 363.949H96.2881V319.712Z" fill="black"/>
<path opacity="0.5" d="M96.2881 260.983H95.144C94.5122 260.983 94 261.495 94 262.127V304.076C94 304.708 94.5122 305.22 95.144 305.22H96.2881V260.983Z" fill="black"/>
<path opacity="0.5" d="M96.2881 214.458H95.144C94.5122 214.458 94 214.97 94 215.602V235.433C94 236.064 94.5122 236.577 95.144 236.577H96.2881V214.458Z" fill="black"/>
<path opacity="0.5" d="M451.712 246.492H452.856C453.488 246.492 454.001 247.004 454.001 247.636V352.127C454.001 352.759 453.488 353.271 452.856 353.271H451.712V246.492Z" fill="black"/>
<g opacity="0.75">
<path d="M251.118 108.822C251.118 107.348 252.313 106.153 253.788 106.153H294.974C296.448 106.153 297.644 107.348 297.644 108.822C297.644 110.297 296.448 111.492 294.974 111.492H253.788C252.313 111.492 251.118 110.297 251.118 108.822Z" fill="black"/>
<path d="M251.118 108.822C251.118 107.348 252.313 106.153 253.788 106.153H294.974C296.448 106.153 297.644 107.348 297.644 108.822C297.644 110.297 296.448 111.492 294.974 111.492H253.788C252.313 111.492 251.118 110.297 251.118 108.822Z" fill="black"/>
</g>
<path fillRule="evenodd" clipRule="evenodd" d="M212.983 111.492C214.89 111.492 216.797 113.398 216.797 115.305V119.119C216.797 127.543 223.626 134.373 232.051 134.373H315.949C324.374 134.373 331.204 127.543 331.204 119.119V115.305C331.204 113.126 332.838 111.492 335.017 111.492H331.204H216.797H212.983Z" fill="url(#paint3_linear_401_18866)"/>
<path d="M239.678 122.551C239.678 124.868 237.8 126.746 235.483 126.746C233.166 126.746 231.288 124.868 231.288 122.551C231.288 120.234 233.166 118.356 235.483 118.356C237.8 118.356 239.678 120.234 239.678 122.551Z" fill="black"/>
<path d="M239.678 122.551C239.678 124.868 237.8 126.746 235.483 126.746C233.166 126.746 231.288 124.868 231.288 122.551C231.288 120.234 233.166 118.356 235.483 118.356C237.8 118.356 239.678 120.234 239.678 122.551Z" fill="black"/>
<path d="M239.678 122.551C239.678 124.868 237.8 126.746 235.483 126.746C233.166 126.746 231.288 124.868 231.288 122.551C231.288 120.234 233.166 118.356 235.483 118.356C237.8 118.356 239.678 120.234 239.678 122.551Z" fill="black"/>
<path d="M239.678 122.551C239.678 124.868 237.8 126.746 235.483 126.746C233.166 126.746 231.288 124.868 231.288 122.551C231.288 120.234 233.166 118.356 235.483 118.356C237.8 118.356 239.678 120.234 239.678 122.551Z" fill="black"/>
<g opacity="0.2">
<path d="M265.61 122.933C265.61 126.302 262.878 129.034 259.508 129.034C256.138 129.034 253.407 126.302 253.407 122.933C253.407 119.563 256.138 116.831 259.508 116.831C262.878 116.831 265.61 119.563 265.61 122.933Z" fill="black"/>
<path d="M265.61 122.933C265.61 126.302 262.878 129.034 259.508 129.034C256.138 129.034 253.407 126.302 253.407 122.933C253.407 119.563 256.138 116.831 259.508 116.831C262.878 116.831 265.61 119.563 265.61 122.933Z" fill="black"/>
<path d="M265.61 122.933C265.61 126.302 262.878 129.034 259.508 129.034C256.138 129.034 253.407 126.302 253.407 122.933C253.407 119.563 256.138 116.831 259.508 116.831C262.878 116.831 265.61 119.563 265.61 122.933Z" fill="black"/>
<path d="M265.61 122.933C265.61 126.302 262.878 129.034 259.508 129.034C256.138 129.034 253.407 126.302 253.407 122.933C253.407 119.563 256.138 116.831 259.508 116.831C262.878 116.831 265.61 119.563 265.61 122.933Z" fill="black"/>
</g>
<g opacity="0.2">
<path d="M291.542 122.933C291.542 126.302 288.81 129.034 285.44 129.034C282.071 129.034 279.339 126.302 279.339 122.933C279.339 119.563 282.071 116.831 285.44 116.831C288.81 116.831 291.542 119.563 291.542 122.933Z" fill="black"/>
<path d="M291.542 122.933C291.542 126.302 288.81 129.034 285.44 129.034C282.071 129.034 279.339 126.302 279.339 122.933C279.339 119.563 282.071 116.831 285.44 116.831C288.81 116.831 291.542 119.563 291.542 122.933Z" fill="black"/>
<path d="M291.542 122.933C291.542 126.302 288.81 129.034 285.44 129.034C282.071 129.034 279.339 126.302 279.339 122.933C279.339 119.563 282.071 116.831 285.44 116.831C288.81 116.831 291.542 119.563 291.542 122.933Z" fill="black"/>
<path d="M291.542 122.933C291.542 126.302 288.81 129.034 285.44 129.034C282.071 129.034 279.339 126.302 279.339 122.933C279.339 119.563 282.071 116.831 285.44 116.831C288.81 116.831 291.542 119.563 291.542 122.933Z" fill="black"/>
</g>
<g opacity="0.2">
<path d="M317.474 122.933C317.474 126.302 314.743 129.034 311.373 129.034C308.003 129.034 305.271 126.302 305.271 122.933C305.271 119.563 308.003 116.831 311.373 116.831C314.743 116.831 317.474 119.563 317.474 122.933Z" fill="black"/>
<path d="M317.474 122.933C317.474 126.302 314.743 129.034 311.373 129.034C308.003 129.034 305.271 126.302 305.271 122.933C305.271 119.563 308.003 116.831 311.373 116.831C314.743 116.831 317.474 119.563 317.474 122.933Z" fill="black"/>
<path d="M317.474 122.933C317.474 126.302 314.743 129.034 311.373 129.034C308.003 129.034 305.271 126.302 305.271 122.933C305.271 119.563 308.003 116.831 311.373 116.831C314.743 116.831 317.474 119.563 317.474 122.933Z" fill="black"/>
<path d="M317.474 122.933C317.474 126.302 314.743 129.034 311.373 129.034C308.003 129.034 305.271 126.302 305.271 122.933C305.271 119.563 308.003 116.831 311.373 116.831C314.743 116.831 317.474 119.563 317.474 122.933Z" fill="black"/>
</g>
<path opacity="0.15" d="M238.153 122.551C238.153 124.026 236.958 125.221 235.483 125.221C234.009 125.221 232.814 124.026 232.814 122.551C232.814 121.077 234.009 119.882 235.483 119.882C236.958 119.882 238.153 121.077 238.153 122.551Z" fill="white"/>
<path d="M373.154 97H379.256V99.2881H373.154V97Z" fill="#171717"/>
<path opacity="0.25" d="M371.628 97H373.154V99.2881H371.628V97Z" fill="white"/>
<path opacity="0.25" d="M379.255 97H380.78V99.2881H379.255V97Z" fill="white"/>
<path d="M451.712 169.458L451.712 175.559L449.424 175.559L449.424 169.458L451.712 169.458Z" fill="#070707"/>
<path opacity="0.25" d="M451.712 167.932L451.712 169.458L449.423 169.458L449.423 167.932L451.712 167.932Z" fill="white"/>
<path opacity="0.25" d="M451.712 175.559L451.712 177.085L449.424 177.085L449.424 175.559L451.712 175.559Z" fill="white"/>
<path d="M98.5758 169.458L98.5758 175.559L96.2877 175.559L96.2877 169.458L98.5758 169.458Z" fill="#2E2E2E"/>
<path opacity="0.5" d="M98.5758 167.932L98.5758 169.458L96.2877 169.458L96.2877 167.932L98.5758 167.932Z" fill="white"/>
<path opacity="0.5" d="M98.5758 175.559L98.5758 177.085L96.2877 177.085L96.2877 175.559L98.5758 175.559Z" fill="white"/>
<path d="M98.5757 753.696L98.5757 759.798L96.2875 759.798L96.2875 753.696L98.5757 753.696Z" fill="#070707"/>
<path opacity="0.1" d="M98.5757 752.171L98.5757 753.696L96.2875 753.696L96.2875 752.171L98.5757 752.171Z" fill="white"/>
<path opacity="0.1" d="M98.5757 759.798L98.5757 761.324L96.2875 761.324L96.2875 759.798L98.5757 759.798Z" fill="white"/>
<path d="M174.848 832.254L168.746 832.254L168.746 829.966L174.848 829.966L174.848 832.254Z" fill="#010101"/>
<path opacity="0.1" d="M176.373 832.254L174.848 832.254L174.848 829.966L176.373 829.966L176.373 832.254Z" fill="white"/>
<path opacity="0.1" d="M168.747 832.254L167.222 832.254L167.222 829.966L168.747 829.966L168.747 832.254Z" fill="white"/>
<path d="M451.712 753.696L451.712 759.798L449.424 759.798L449.424 753.696L451.712 753.696Z" fill="black"/>
<path opacity="0.1" d="M451.712 752.171L451.712 753.696L449.424 753.696L449.424 752.171L451.712 752.171Z" fill="white"/>
<path opacity="0.1" d="M451.712 759.798L451.712 761.324L449.424 761.324L449.424 759.798L451.712 759.798Z" fill="white"/>
<defs>
<filter id="filter0_dd_401_18866" x="0.186424" y="0.898582" width="767.288" height="1147.12" filterUnits="userSpaceOnUse" color-interpolation-filters="sRGB">
<feFlood flood-opacity="0" result="BackgroundImageFix"/>
<feColorMatrix in="SourceAlpha" type="matrix" values="0 0 0 0 0 0 0 0 0 0 0 0 0 0 0 0 0 0 127 0" result="hardAlpha"/>
<feOffset dx="109.83" dy="109.83"/>
<feGaussianBlur stdDeviation="102.966"/>
<feColorMatrix type="matrix" values="0 0 0 0 0 0 0 0 0 0 0 0 0 0 0 0 0 0 0.25 0"/>
<feBlend mode="normal" in2="BackgroundImageFix" result="effect1_dropShadow_401_18866"/>
<feColorMatrix in="SourceAlpha" type="matrix" values="0 0 0 0 0 0 0 0 0 0 0 0 0 0 0 0 0 0 127 0" result="hardAlpha"/>
<feOffset dx="27.4576" dy="27.4576"/>
<feGaussianBlur stdDeviation="34.322"/>
<feColorMatrix type="matrix" values="0 0 0 0 0 0 0 0 0 0 0 0 0 0 0 0 0 0 0.35 0"/>
<feBlend mode="normal" in2="effect1_dropShadow_401_18866" result="effect2_dropShadow_401_18866"/>
<feBlend mode="normal" in="SourceGraphic" in2="effect2_dropShadow_401_18866" result="shape"/>
</filter>
<linearGradient id="paint0_linear_401_18866" x1="141.404" y1="99.2886" x2="339.972" y2="187.645" gradientUnits="userSpaceOnUse">
<stop stop-color="#2F2F2F"/>
<stop offset="1"/>
</linearGradient>
<linearGradient id="paint1_linear_401_18866" x1="98.5762" y1="105.39" x2="531.415" y2="590.093" gradientUnits="userSpaceOnUse">
<stop stop-color="white" stop-opacity="0.3"/>
<stop offset="1" stop-color="#010101"/>
</linearGradient>
<linearGradient id="paint2_linear_401_18866" x1="113.766" y1="115.476" x2="417.906" y2="418.822" gradientUnits="userSpaceOnUse">
<stop stop-color="white"/>
<stop offset="0.645833" stop-color="white" stop-opacity="0"/>
</linearGradient>
<linearGradient id="paint3_linear_401_18866" x1="213.746" y1="111.492" x2="334.254" y2="111.492" gradientUnits="userSpaceOnUse">
<stop stop-color="#202020"/>
<stop offset="1" stop-color="#090909"/>
</linearGradient>
</defs>
</svg>
