<svg width="47" height="49" viewBox="0 0 47 49" fill="none" xmlns="http://www.w3.org/2000/svg">
    <path fillRule="evenodd" clipRule="evenodd" d="M15.7184 16.3718C15.7184 16.3718 15.7183 16.3718 15.7183 16.3718H15.7181V16.3718C15.7181 7.58142 22.6061 0.455414 31.1028 0.455414C39.5994 0.455414 46.4874 7.58142 46.4874 16.3718C46.4874 25.1621 39.5996 32.288 31.103 32.2882V16.3718H15.7184Z" fill="#FF3A20"/>
    <path fillRule="evenodd" clipRule="evenodd" d="M0.333442 32.2882C0.333443 23.4978 7.22137 16.3718 15.7181 16.3718L15.7184 16.3718L15.7184 32.2882L31.1027 32.2882L31.1027 32.2882C31.1027 41.0786 24.2147 48.2046 15.7181 48.2046C7.22137 48.2046 0.333441 41.0786 0.333442 32.2882Z" fill="#FF3A20"/>
</svg>
