<svg width="417" height="271" viewBox="0 0 417 271" fill="none" xmlns="http://www.w3.org/2000/svg">
<path d="M32.8589 22.7667C32.8589 15.8111 32.8589 12.3334 34.2125 9.67667C35.4032 7.33979 37.3032 5.43985 39.6401 4.24915C42.2967 2.89551 45.7745 2.89551 52.7301 2.89551H364.211C371.167 2.89551 374.645 2.89551 377.301 4.24915C379.638 5.43985 381.538 7.33979 382.729 9.67667C384.082 12.3334 384.082 15.8111 384.082 22.7667V249.298C384.082 256.254 384.082 259.732 382.729 262.388C381.538 264.725 379.638 266.625 377.301 267.816C374.645 269.17 371.167 269.17 364.211 269.17H52.7301C45.7745 269.17 42.2967 269.17 39.6401 267.816C37.3032 266.625 35.4032 264.725 34.2125 262.388C32.8589 259.732 32.8589 256.254 32.8589 249.298V22.7667Z" fill="url(#paint0_linear_458_8186)"/>
<path fillRule="evenodd" clipRule="evenodd" d="M364.279 1.40515C367.7 1.40514 370.358 1.40514 372.49 1.57931C374.653 1.75604 376.405 2.11952 377.978 2.92123C380.595 4.25482 382.723 6.38275 384.057 9.00006C384.859 10.5735 385.222 12.3251 385.399 14.4882C385.573 16.62 385.573 19.2787 385.573 22.6995V249.366C385.573 252.786 385.573 255.445 385.399 257.577C385.222 259.74 384.859 261.492 384.057 263.065C382.723 265.682 380.595 267.81 377.978 269.144C376.405 269.946 374.653 270.309 372.49 270.486C370.358 270.66 367.699 270.66 364.279 270.66H52.663C49.2422 270.66 46.5835 270.66 44.4517 270.486C42.2886 270.309 40.537 269.946 38.9636 269.144C36.3463 267.81 34.2183 265.682 32.8847 263.065C32.083 261.492 31.7195 259.74 31.5428 257.577C31.3686 255.445 31.3686 252.787 31.3687 249.366V22.6991C31.3686 19.2785 31.3686 16.62 31.5428 14.4882C31.7195 12.3251 32.083 10.5735 32.8847 9.00006C34.2183 6.38275 36.3463 4.25482 38.9636 2.92123C40.537 2.11952 42.2886 1.75604 44.4517 1.57931C46.5835 1.40514 49.242 1.40514 52.6626 1.40515H364.279ZM34.2126 9.67666C32.859 12.3333 32.859 15.8111 32.859 22.7667V249.298C32.859 256.254 32.859 259.732 34.2126 262.388C35.4033 264.725 37.3033 266.625 39.6402 267.816C42.2968 269.17 45.7746 269.17 52.7302 269.17H364.211C371.167 269.17 374.645 269.17 377.301 267.816C379.638 266.625 381.538 264.725 382.729 262.388C384.083 259.732 384.083 256.254 384.083 249.298V22.7667C384.083 15.8111 384.083 12.3333 382.729 9.67666C381.538 7.33978 379.638 5.43984 377.301 4.24914C374.645 2.89549 371.167 2.89549 364.211 2.89549H52.7302C45.7746 2.89549 42.2968 2.89549 39.6402 4.24914C37.3033 5.43984 35.4033 7.33978 34.2126 9.67666Z" fill="url(#paint1_linear_458_8186)"/>
<rect x="38.8203" y="8.85681" width="339.301" height="254.351" rx="6.34173" fill="#2143E6"/>
<path d="M179.409 258.861C179.409 258.518 179.687 258.24 180.03 258.24H236.911C237.254 258.24 237.532 258.518 237.532 258.861C237.532 259.204 237.254 259.482 236.911 259.482H180.03C179.687 259.482 179.409 259.204 179.409 258.861Z" fill="white"/>
<path d="M45.973 15.3786C46.6407 15.3786 47.0373 14.8565 47.0373 13.9705C47.0373 13.1009 46.6152 12.6243 45.9876 12.6243C45.4163 12.6243 45.0125 13.0081 45.0125 13.5448C45.0125 14.0488 45.3763 14.4162 45.8766 14.4162C46.1841 14.4162 46.4333 14.2743 46.557 14.0251H46.5879C46.5825 14.6418 46.3623 14.9948 45.9785 14.9948C45.7529 14.9948 45.5728 14.8711 45.5164 14.6709H45.0488C45.1252 15.0985 45.4927 15.3786 45.973 15.3786ZM45.9894 14.0542C45.6838 14.0542 45.4727 13.8395 45.4727 13.5303C45.4727 13.2337 45.6947 13.0063 45.9912 13.0063C46.2878 13.0063 46.5097 13.2374 46.5097 13.5394C46.5097 13.8377 46.2932 14.0542 45.9894 14.0542Z" fill="white"/>
<path d="M47.7869 13.6158C47.9597 13.6158 48.078 13.4957 48.078 13.3338C48.078 13.1719 47.9597 13.0518 47.7869 13.0518C47.6159 13.0518 47.4958 13.1719 47.4958 13.3338C47.4958 13.4957 47.6159 13.6158 47.7869 13.6158ZM47.7869 14.9511C47.9597 14.9511 48.078 14.8292 48.078 14.6691C48.078 14.5072 47.9597 14.3871 47.7869 14.3871C47.6159 14.3871 47.4958 14.5072 47.4958 14.6691C47.4958 14.8292 47.6159 14.9511 47.7869 14.9511Z" fill="white"/>
<path d="M49.8173 15.315H50.2666V14.811H50.6214V14.4235H50.2666V12.6898H49.6044C49.2478 13.2319 48.8749 13.8359 48.5347 14.4272V14.811H49.8173V15.315ZM48.9695 14.4071C49.226 13.9614 49.5298 13.4757 49.7991 13.0645H49.8245V14.4344H48.9695V14.4071Z" fill="white"/>
<path d="M51.6221 15.315H52.0914V12.6898H51.6239L50.938 13.1719V13.6139L51.5911 13.1519H51.6221V15.315Z" fill="white"/>
<path d="M55.4245 15.315H55.9284L54.9951 12.6898H54.4675L53.5361 15.315H54.0109L54.2365 14.6364H55.2025L55.4245 15.315ZM54.7058 13.1828H54.7368L55.0934 14.2743H54.3456L54.7058 13.1828Z" fill="white"/>
<path d="M59.0158 15.315V12.6898H58.4663L57.6768 14.6382H57.644L56.8545 12.6898H56.3051V15.315H56.7417V13.4539H56.7671L57.493 15.2331H57.8278L58.5537 13.4539H58.5791V15.315H59.0158Z" fill="white"/>
<path d="M354.493 15.315H354.962V12.6898H354.495L353.809 13.1719V13.6139L354.462 13.1519H354.493V15.315Z" fill="white"/>
<path d="M356.598 15.3805C357.226 15.3805 357.599 14.8729 357.599 14.0033C357.599 13.1318 357.22 12.6243 356.598 12.6243C355.974 12.6243 355.596 13.1318 355.596 13.9996C355.596 14.8711 355.969 15.3805 356.598 15.3805ZM356.598 15.0002C356.265 15.0002 356.07 14.6546 356.07 13.9996C356.07 13.3502 356.269 13.0063 356.598 13.0063C356.927 13.0063 357.124 13.3483 357.124 13.9996C357.124 14.6564 356.931 15.0002 356.598 15.0002Z" fill="white"/>
<path d="M359.001 15.3805C359.629 15.3805 360.002 14.8729 360.002 14.0033C360.002 13.1318 359.624 12.6243 359.001 12.6243C358.377 12.6243 357.999 13.1318 357.999 13.9996C357.999 14.8711 358.372 15.3805 359.001 15.3805ZM359.001 15.0002C358.668 15.0002 358.474 14.6546 358.474 13.9996C358.474 13.3502 358.672 13.0063 359.001 13.0063C359.331 13.0063 359.527 13.3483 359.527 13.9996C359.527 14.6564 359.334 15.0002 359.001 15.0002Z" fill="white"/>
<path d="M360.875 13.9014C361.256 13.9014 361.479 13.6667 361.479 13.2701C361.479 12.879 361.25 12.6406 360.875 12.6406C360.502 12.6406 360.271 12.8808 360.271 13.2701C360.271 13.6667 360.497 13.9014 360.875 13.9014ZM361.092 15.315L362.86 12.6898H362.485L360.715 15.315H361.092ZM360.875 13.6121C360.726 13.6121 360.637 13.4884 360.637 13.2719C360.637 13.0591 360.726 12.9299 360.875 12.9299C361.024 12.9299 361.114 13.0591 361.114 13.2719C361.114 13.4866 361.028 13.6121 360.875 13.6121ZM362.7 15.3441C363.08 15.3441 363.304 15.1094 363.304 14.711C363.304 14.3216 363.075 14.0833 362.7 14.0833C362.327 14.0833 362.096 14.3216 362.096 14.711C362.096 15.1076 362.322 15.3441 362.7 15.3441ZM362.7 15.0548C362.549 15.0548 362.464 14.9311 362.464 14.7128C362.464 14.4999 362.551 14.3726 362.7 14.3726C362.851 14.3726 362.938 14.4999 362.938 14.7128C362.938 14.9293 362.851 15.0548 362.7 15.0548Z" fill="white"/>
<path opacity="0.35" fillRule="evenodd" clipRule="evenodd" d="M369.195 12.914H365.85C365.661 12.914 365.533 12.9142 365.436 12.9222C365.34 12.93 365.295 12.9439 365.265 12.9592C365.187 12.9989 365.124 13.0622 365.084 13.1401C365.069 13.1701 365.055 13.2155 365.047 13.3106C365.039 13.4086 365.039 13.5359 365.039 13.7254V14.4209C365.039 14.6105 365.039 14.7378 365.047 14.8358C365.055 14.9308 365.069 14.9763 365.084 15.0063C365.124 15.0842 365.187 15.1475 365.265 15.1872C365.295 15.2025 365.34 15.2164 365.436 15.2241C365.533 15.2322 365.661 15.2323 365.85 15.2323H369.195C369.385 15.2323 369.512 15.2322 369.61 15.2241C369.705 15.2164 369.751 15.2025 369.781 15.1872C369.859 15.1475 369.922 15.0842 369.962 15.0063C369.977 14.9763 369.991 14.9308 369.999 14.8358C370.007 14.7378 370.007 14.6105 370.007 14.4209V13.7254C370.007 13.5359 370.007 13.4086 369.999 13.3106C369.991 13.2155 369.977 13.1701 369.962 13.1401C369.922 13.0622 369.859 12.9989 369.781 12.9592C369.751 12.9439 369.705 12.93 369.61 12.9222C369.512 12.9142 369.385 12.914 369.195 12.914ZM364.863 13.0273C364.791 13.169 364.791 13.3545 364.791 13.7254V14.4209C364.791 14.7919 364.791 14.9774 364.863 15.1191C364.926 15.2437 365.028 15.345 365.152 15.4085C365.294 15.4807 365.479 15.4807 365.85 15.4807H369.195C369.566 15.4807 369.752 15.4807 369.893 15.4085C370.018 15.345 370.119 15.2437 370.183 15.1191C370.255 14.9774 370.255 14.7919 370.255 14.4209V13.7254C370.255 13.3545 370.255 13.169 370.183 13.0273C370.119 12.9027 370.018 12.8013 369.893 12.7378C369.752 12.6656 369.566 12.6656 369.195 12.6656H365.85C365.479 12.6656 365.294 12.6656 365.152 12.7378C365.028 12.8013 364.926 12.9027 364.863 13.0273Z" fill="white"/>
<path opacity="0.4" d="M370.504 13.5767V14.5702C370.704 14.4861 370.834 14.2903 370.834 14.0734C370.834 13.8566 370.704 13.6608 370.504 13.5767Z" fill="white"/>
<path d="M365.287 13.6924C365.287 13.5069 365.287 13.4142 365.323 13.3433C365.355 13.281 365.406 13.2303 365.468 13.1986C365.539 13.1625 365.632 13.1625 365.817 13.1625H369.228C369.414 13.1625 369.507 13.1625 369.578 13.1986C369.64 13.2303 369.691 13.281 369.722 13.3433C369.758 13.4142 369.758 13.5069 369.758 13.6924V14.4541C369.758 14.6396 369.758 14.7323 369.722 14.8032C369.691 14.8655 369.64 14.9162 369.578 14.9479C369.507 14.984 369.414 14.984 369.228 14.984H365.817C365.632 14.984 365.539 14.984 365.468 14.9479C365.406 14.9162 365.355 14.8655 365.323 14.8032C365.287 14.7323 365.287 14.6396 365.287 14.4541V13.6924Z" fill="white"/>
<path fillRule="evenodd" clipRule="evenodd" d="M349.722 13.2321C350.274 13.2321 350.806 13.4443 351.206 13.8247C351.237 13.8541 351.285 13.8537 351.314 13.8239L351.603 13.5332C351.618 13.5181 351.626 13.4976 351.626 13.4762C351.626 13.4549 351.617 13.4345 351.602 13.4196C350.551 12.413 348.893 12.413 347.841 13.4196C347.826 13.4345 347.818 13.4549 347.817 13.4762C347.817 13.4976 347.826 13.5181 347.841 13.5332L348.129 13.8239C348.159 13.8538 348.207 13.8541 348.237 13.8247C348.638 13.4443 349.169 13.2321 349.722 13.2321ZM349.722 14.1779C350.025 14.1779 350.318 14.2906 350.543 14.4942C350.574 14.5231 350.622 14.5225 350.651 14.4928L350.939 14.2021C350.954 14.1869 350.963 14.1662 350.963 14.1447C350.962 14.1232 350.954 14.1027 350.938 14.0878C350.253 13.4508 349.191 13.4508 348.506 14.0878C348.491 14.1027 348.482 14.1232 348.482 14.1447C348.481 14.1662 348.49 14.1869 348.505 14.2021L348.793 14.4928C348.823 14.5225 348.87 14.5231 348.901 14.4942C349.126 14.2908 349.418 14.178 349.722 14.1779ZM350.299 14.8142C350.299 14.8358 350.291 14.8566 350.275 14.8717L349.777 15.3739C349.762 15.3887 349.743 15.397 349.722 15.397C349.701 15.397 349.681 15.3887 349.667 15.3739L349.168 14.8717C349.153 14.8565 349.144 14.8358 349.145 14.8142C349.145 14.7926 349.155 14.7722 349.171 14.7578C349.489 14.489 349.955 14.489 350.273 14.7578C350.289 14.7722 350.298 14.7927 350.299 14.8142Z" fill="white"/>
<path d="M38.8203 17.3021C38.8203 12.6379 42.6014 8.85681 47.2656 8.85681H369.924C374.588 8.85681 378.37 12.6379 378.37 17.3021V254.763C378.37 259.427 374.588 263.208 369.924 263.208H47.2656C42.6014 263.208 38.8203 259.427 38.8203 254.763V17.3021Z" fill="url(#paint2_linear_458_8186)" fill-opacity="0.25" style="mix-blend-mode:screen"/>
<path opacity="0.5" d="M91.2302 1.40515L91.2302 1.03257C91.2302 0.826793 91.0634 0.659981 90.8576 0.659981L77.1962 0.659981C76.9904 0.659981 76.8236 0.826793 76.8236 1.03257L76.8236 1.40515L91.2302 1.40515Z" fill="black"/>
<path opacity="0.5" d="M72.1045 1.40515L72.1045 1.03257C72.1045 0.826793 71.9377 0.659981 71.7319 0.659981L58.0705 0.659981C57.8647 0.659981 57.6979 0.826793 57.6979 1.03257L57.6979 1.40515L72.1045 1.40515Z" fill="black"/>
<path opacity="0.5" d="M31.3687 27.7344L30.9961 27.7344C30.7903 27.7344 30.6235 27.9012 30.6235 28.107L30.6235 41.7684C30.6235 41.9742 30.7903 42.141 30.9961 42.141L31.3687 42.141L31.3687 27.7344Z" fill="black"/>
<path d="M37.3298 136.033C37.3298 136.856 36.6626 137.523 35.8395 137.523C35.0164 137.523 34.3491 136.856 34.3491 136.033C34.3491 135.209 35.0164 134.542 35.8395 134.542C36.6626 134.542 37.3298 135.209 37.3298 136.033Z" fill="black"/>
<path d="M37.3298 136.033C37.3298 136.856 36.6626 137.523 35.8395 137.523C35.0164 137.523 34.3491 136.856 34.3491 136.033C34.3491 135.209 35.0164 134.542 35.8395 134.542C36.6626 134.542 37.3298 135.209 37.3298 136.033Z" fill="black"/>
<path d="M37.3298 136.033C37.3298 136.856 36.6626 137.523 35.8395 137.523C35.0164 137.523 34.3491 136.856 34.3491 136.033C34.3491 135.209 35.0164 134.542 35.8395 134.542C36.6626 134.542 37.3298 135.209 37.3298 136.033Z" fill="black"/>
<path d="M37.3298 136.033C37.3298 136.856 36.6626 137.523 35.8395 137.523C35.0164 137.523 34.3491 136.856 34.3491 136.033C34.3491 135.209 35.0164 134.542 35.8395 134.542C36.6626 134.542 37.3298 135.209 37.3298 136.033Z" fill="black"/>
<path opacity="0.15" d="M36.734 136.032C36.734 136.526 36.3336 136.927 35.8398 136.927C35.3459 136.927 34.9456 136.526 34.9456 136.032C34.9456 135.539 35.3459 135.138 35.8398 135.138C36.3336 135.138 36.734 135.539 36.734 136.032Z" fill="white"/>
<defs>
<linearGradient id="paint0_linear_458_8186" x1="75.7329" y1="2.89551" x2="180.982" y2="175.124" gradientUnits="userSpaceOnUse">
<stop stop-color="#2B2B2B"/>
<stop offset="1"/>
</linearGradient>
<linearGradient id="paint1_linear_458_8186" x1="32.859" y1="2.8955" x2="195.119" y2="164.563" gradientUnits="userSpaceOnUse">
<stop stop-color="#D7D7D7"/>
<stop offset="1" stop-color="#B7B7B7"/>
</linearGradient>
<linearGradient id="paint2_linear_458_8186" x1="41.9259" y1="10.2918" x2="109.792" y2="205.796" gradientUnits="userSpaceOnUse">
<stop stop-color="white"/>
<stop offset="0.645833" stop-color="white" stop-opacity="0"/>
</linearGradient>
</defs>
</svg>
